<?xml version="1.0" encoding="UTF-8"?>
<svg id="Layer_1" data-name="Layer 1" xmlns="http://www.w3.org/2000/svg" viewBox="0 0 528.54 229.25">
  <path d="M128.35,18.9c2.75,1.52,9.7,10.68,6.45,13.4-2.93,2.45-7.55-5.71-11.52-5.98-1.9-.13-10.05,3.55-10.57,5.38-1.12,3.96,1.7,2.58,2.22,3.12.41.43.71,6.49,1.22,8.03.45,1.38,3.18,5.65,3.36,7.19.15,1.32-2.13,5.59-2.84,5.74-.84.18-2.16-.91-2.98-.87-13.04.63-10.65-3.46-17.94-10.17-5.64-5.19-19.32-.4-26.05.45-4.62.59-7.27-.82-12.05.46-13.27,3.55-31.28,19.89-28.24,34.93,3.35,16.62,20.08,25.56,35.46,28.54,3.45.67,20.35.9,21.13,1.62.17.16-.17,1.81,0,2,.1.11,1.65-1.12,2.71-1s1.64,1.24,2.59,1.35c11.98,1.36,28.07-1.76,39.98-3.31,7.4-.97,23.48-1.7,29.74-4.26,2.11-.86,6.34-13.74,7.35-16.65.41-1.18-.73,2.7-.2,1.24.76-2.1,1.5-1.16,1.96-2.6.58-1.81,5.42-5.4,5.86-5.78,1.54-1.31,2.78-1.44,4.75-1.58,3.07-.22,5.15.19,7.37,1.11,1.48.61,2.81,1.34,3.25,1.74,1.4,1.29,1.68,1.21,2.14,2.93.69,2.6.02,2.37.4,4.91.16,1.09-3.03,9.44-3.41,10.06-9.49,15.76-7.05.71,4.28-.24.93-.08,15.26-3.97,17.52-4.38,6.9-1.26,16.53-1.61,23.31-4.17,3.22-1.21.6-2.86,2.2-3.34.9-.27,2.63.91,3.54.83,3.69-.32,7.28-.09,10.34-.39,2.12-.21,14.26-5.01,14.81-4.47l-3.5,5.49c10.73,2.18,17.16,10.93,19.78,20.98,3.33,12.78,1.6,18.6-4.02,30.55-22.61,48.09-84.87,68.5-134.5,72-3.26.23-11.47-.94-13.89.12-1.91.84-8.64,11.49-11.12,13.38-.32.25-4.5,2.06-4.75,1.99-.08-.02-.22-1.37-.77-1.5-.71-.17-1.31,1-1.49,1-.84.03,7.47-13.46,4.77-15.76-1.72-1.46-29.81-1.62-33.9-4.6-19.67-2.17-34.23-7.84-50.93-17.07-1.61-.89-5.58-1.36-6.19-1.81-.3-.22-3.46-5.21-4.51-5.99-2.86-2.15-9.16-4.01-12.6-6.76C7.05,175.29-.18,166.69,0,164.76c.01-.14,1.86-2.08,1.99-2.01s.32,1.63,1.55,2.21c8.59,4.07,38,12.55,46.58,10.16,1.16-.32,4.13-3,4.88-2.37.14.12-.14,1.39,0,1.5.2.16,3.37-.73,5.14-.39,19.69,3.78,38.43,10.94,58.67,12.83,1.48.14,11.56.76,12.09.47,2.08-5.75,5.51-11.32,7.86-16.88,4.86-11.5,8.92-24.87,13.36-36.64,1.22-3.25,1.78-6.96,1.37-10.38l-29.29,5.98c-16.49.67-32.41,3.89-48.96,1.52-53.66-7.67-95.37-49.18-32.19-85.69,17.78-10.28,34.69-9.89,52.03-16.47,3.44-1.31,7.57-5.88,11.06-7.44,6.22-2.8,16.02-5.66,22.2-2.24ZM179.94,84.19c-4.2,1.35-10.77,12.68-7.23,14.3,8.12,3.7,13.82,1.94,14.85-10.53.19-2.26-1.42-3.58-5.23-3.96M256.16,140.4c5.24-7.8,10.79-15.85,11.32-25.92.24-4.56-1.48-13.38-5.97-15.51-14.38-6.81-56.59,9.65-72.13,14.91-3.87,1.31-14.5,2.29-16.77,5.73-7.09,23.85-17.99,46.12-28.12,68.63,31.36-.14,64.93-8,90.93-25.84,9.42-6.46,14.47-12.68,20.73-22Z"/>
  <path d="M419.32,87.59c-2.63,7.68-6.22,16.49-10.92,23.82-2.87,4.48-9.36,6.62.06,8.12,3.58.57,22.1-.92,23.8-3.76,1.42-2.37-1.61-5.05,2.92-8.33,2.84-2.06,10.89-3.26,13.65-.52,4.86,4.81-1.73,12.73-1.33,13.34,1.87,2.91,25.51-.52,29.76-.98,1.86-.2,3.76.44,5.26.25,6.08-.78,44.17-10.25,45.97-8.76.56,2.59-3.96,3.32-4.87,4.16-5.54,5.1-13.14,10.67-20.29,13.93-11.78,5.38-53.88,11.97-65.35,7.17-1.52-.64-3.05-3.02-3.81-3.15-1.53-.27-10.17,3.17-12.93,3.39-3.36.28-22.09-2.16-25.24-3.26-1.47-.51-7.55-4.7-8.25-4.73-.78-.03-7.15,3.06-8.63,3.37-6.58,1.38-20.1,3.02-25.6-.67-4.08-2.73-5.67-10.17-6.29-10.2-.36-.02-5.23,3.81-5.87,4.11-15.64,7.31-20.03,11.25-34.39-1.86-.92-.84-2.57-4.15-4.8-5.19-3.68-1.73-7.98.63-11.18-2.81.01-1.73,11.75-.1,13.65-.84,1.74-.67,1.04-3.89,1.96-4.79.23-.23,4.89-3.31,5.24-3.51,3.44-1.87,11.96,1.07,13.74,4.54,2.66,5.2.99,5.56-2.09,9.35,3.67,1.33,7.29-1.11,10.16-1.39,2.68-.26,2.83,2.02,8.68-.51,9.11-3.95,1.94-4.88,6.14-11.6l.76,2.99c3.81-7.34,6.28-19.74,14.3-24.19,2.42-1.34,9.04-3.38,9.93.57,1.28,5.68-3.49,9.24-6.49,13.37-.65.9-.31,2.19-.96,3.04-1.28,1.67-6.84,5.61-7.3,6.75-.42,1.06.42,2.04.18,2.63-.87,2.15-5.21,4.39,2.38,6.3,7.57,1.91,16.34-2.3,22.73-6.17,2.83-15.54,12.37-43.15,33.52-36.46,7.83,2.48,3.53,7.43,1.78,12.52ZM368.5,95.25c-2.89-2.39-12.38,11.11-11.49,11.99,1.46,1.45,12.32-11.31,11.49-11.99Z"/>
  <path d="M184.5,40.25c12.25.41,7.5-9.29,13.26-15.5l2.49,8.48c4.32-4.39,5.82-8.92,12.99-8.48l14.12,8.92c1.29.04,3.85-2.59,5.52-3.29,1.85-.77,3.57,1.13,2.87-1.63,4.49,1.19,7.44,9.28,11.03,9.96,13.23,2.5,10.56-10.01,17.97-13.47,2.66-1.24,11.64-1.89,13.18.57.58.92-2.75,9.02,1.44,10.81,5.12,2.19,26.02-.47,30.8-3.96,1.61-1.18,3.31-4.36,3.59-4.42,1.48-.32,1.06,2.5,1.71,3.28,2.32,2.78,9.75,3.77,2.5,8.93-9.77,6.95-27.69,11.31-39.58,9.65-3.45-.48-9.01-3.72-10.11-3.82-1.27-.12-7.91,4.45-10.94,5.03-4.96.96-10.57.96-14.67-2.24-1.81-1.42-4.67-7.57-7.86-6.38-.57.21-2.52,9.14-7.55,8.61-1.04-.11-8.72-10.49-10.06-12.01-1.48-1.68-3.84-.97-3.7-4.05,1.82-.25.27,1.41,2.24,2,1,.3,3.94.31,3.6-1.27-.48-2.24-2.46-.29-2.85-.47-1.2-.54-1.81-6.97-3.74-5.76-2.25,1.4.38,4.28.24,4.49s-1.5-.95-1.9,1.91c-.2,1.4.74,2,.65,2.64-.32,2.39-1.3,7.75-2.11,9.85-.28.72-4.55,7.4-4.98,7.54-3.96,1.31-3.3-9.53-4.93-9.94-.46-.11-5.97,4.47-7.87,5.12-7.22,2.47-15.01,3.59-22.5,2.27-2.46-.43-8.78-3.07-11.05-2.88-4.21.36-12.85,10.36-18.96,10.81-6.58.48-4.41-2.81-6.46-5.2-.46-.54-2.51-.44-2.87-1.36-.46-1.17,14.36-5.92,15.95-8.04l34.37-27.14c2.65.02,4.23,17.51,4.16,20.43ZM271.99,26.25c-.58-.57-4.73,1.84-3.49,2.99,1.09,1.02,4.47-2.03,3.49-2.99ZM235.99,34.25l-3.99,1.24,3.66.27.33-1.51Z"/>
  <path d="M329.99.74c-.07.1-1.24.06-1.42.82-.9,3.71.51,6.06-5.05,7.96-1.82.62-4.37.1-5.9.56-10.7,3.21-27.17,9.69-37.92,10.66-1.17.1-5.85-1.36-6.38-1.93-.67-.72-.32-2.55-1.56-4.06-.67-.81-7.5-3.77-6.25-4.49.51-.29,9.31.19,11.67-.07,12.56-1.4,33.48-3.96,45.22-7.28.53-.15,9.43-4.61,7.6-2.15Z"/>
  <path d="M303.34,142.39c.41.27,3.03,4.46,3.05,5,.02.51-1.77,9.55-1.99,10.01-2.8,6.05-8.24-6.68-8.41-8.86-.02-.21.84-3.93,1-4.06.38-.32,1.16.41,1.39.2,1.03-.91,2.18-4.08,4.95-2.29Z"/>
  <path d="M322.38,156.64c-.11.27-3.4,4.43-3.68,4.52-5.31,1.57-7.15-16.32-.37-16.35,2.28-.01,4.98,9.51,4.04,11.84Z"/>
  <path d="M462.82,85.57c-5.5,7.03-8.45-7.82-5.11-10.36,1.92-1.46,5.64.3,6.78-3.45.07,3.99.85,10.59-1.67,13.82Z"/>
  <path d="M450.35,82.1c-5.51,5.43-10.49-5.76-4.63-8.89,1.66-.89,3.03-.09,4.18-.58.16-.07,1.3-2.39,1.86-2.37,2.48.08-.23,10.69-1.4,11.84Z"/>
</svg>